HIERARCHY
ROOT Hips
{
  OFFSET 0 0 0
  CHANNELS 6 Xposition Yposition Zposition Zrotation Yrotation Xrotation
  JOINT LeftThigh
  {
    OFFSET 8.409438 0 -5.917753
    CHANNELS 3 Zrotation Yrotation Xrotation
    JOINT LeftLeg
    {
      OFFSET 0 0 -42.358652
      CHANNELS 3 Zrotation Yrotation Xrotation
      JOINT LeftFoot
      {
        OFFSET 0 0 -39.357303
        CHANNELS 3 Zrotation Yrotation Xrotation
      }
    }
  }
  JOINT RightThigh
  {
    OFFSET -8.409438 0 -5.917753
    CHANNELS 3 Zrotation Yrotation Xrotation
    JOINT RightLeg
    {
      OFFSET 0 0 -42.358652
      CHANNELS 3 Zrotation Yrotation Xrotation
      JOINT RightFoot
      {
        OFFSET 0 0 -39.357303
        CHANNELS 3 Zrotation Yrotation Xrotation
      }
    }
  }
  JOINT SpineLow
  {
    OFFSET 0 0 4.719101
    CHANNELS 3 Zrotation Yrotation Xrotation
    JOINT SpineMid
    {
      OFFSET 0 0 12.899191
      CHANNELS 3 Zrotation Yrotation Xrotation
      JOINT Chest
      {
        OFFSET 0 0 12.899191
        CHANNELS 3 Zrotation Yrotation Xrotation
        JOINT LeftShoulder
        {
          OFFSET 7.550562 1.41573 9.438202
          CHANNELS 3 Zrotation Yrotation Xrotation
          JOINT LeftArm
          {
            OFFSET 9.155056 0 4.247191
            CHANNELS 3 Zrotation Yrotation Xrotation
            JOINT LeftForearm
            {
              OFFSET 0 0 25.771955
              CHANNELS 3 Zrotation Yrotation Xrotation
              JOINT LeftHand
              {
                OFFSET 0 0 25.197169
                CHANNELS 3 Zrotation Yrotation Xrotation
              }
            }
          }
        }
        JOINT RightShoulder
        {
          OFFSET -7.550562 1.41573 9.438202
          CHANNELS 3 Zrotation Yrotation Xrotation
          JOINT RightArm
          {
            OFFSET -9.155056 0 4.247191
            CHANNELS 3 Zrotation Yrotation Xrotation
            JOINT RightForearm
            {
              OFFSET 0 0 -25.771955
              CHANNELS 3 Zrotation Yrotation Xrotation
              JOINT RightHand
              {
                OFFSET 0 0 -25.197169
                CHANNELS 3 Zrotation Yrotation Xrotation
              }
            }
          }
        }
        JOINT Neck
        {
          OFFSET 0 0 15.101124
          CHANNELS 3 Zrotation Yrotation Xrotation
          JOINT Head
          {
            OFFSET 0 0 11.325843
            CHANNELS 3 Zrotation Yrotation Xrotation
            End Site
            {
              OFFSET 0 0 14.157303
            }
          }
        }
      }
    }
  }
}
MOTION
Frames: 5
Frame Time: 0.0
0.0  93.25843  0.0  2.627558  30.097318  -91.611119  8.295157  -12.928313  19.951594  -9.08336  2.838839  16.654063  3.39949  1.341376  -1.04797  -26.106493  -10.066149  -40.887059  14.258107  19.040177  55.658334  9.066928  4.664339  2.376579  0.82748  -0.286426  1.774905  2.239532  -0.843029  4.841312  2.239532  -0.843029  4.841312  -17.478493  25.33161  10.316332  142.370456  39.492425  -160.457312  -11.493662  9.577336  80.806987  59.314435  -32.287902  -0.269968  5.093482  -12.212048  15.669745  33.365654  71.056512  -20.682377  -38.060449  -30.864861  -82.729417  50.041262  5.303108  -14.982489  -16.781845  -2.930397  2.052635  -12.573967  -2.256216  1.459883  
0.0  93.25843  0.0  2.779902  30.51768  -91.346902  8.54046  -12.72697  19.596691  -9.281331  2.432331  16.558215  3.303837  1.428376  -1.096896  -27.812035  -10.496452  -41.179072  14.914464  18.922284  55.697491  9.150508  4.618164  2.32421  0.804203  -0.223829  1.742315  2.180845  -0.669284  4.754545  2.180845  -0.669284  4.754545  -18.446564  25.121579  9.870077  142.446535  39.363705  -161.115635  -12.204763  9.05663  81.007471  59.517106  -32.181185  -0.541973  5.128547  -12.290282  15.490168  29.985157  71.097165  -22.182442  -36.46253  -32.381998  -83.579852  50.238853  5.236901  -14.964775  -16.89477  -2.927859  2.172892  -12.658102  -2.258049  1.549684  
0.0  93.25843  0.0  2.835311  30.877035  -90.870079  8.424696  -12.027734  19.226254  -9.004188  1.617554  16.284439  2.912765  1.483922  -1.193375  -29.110414  -10.959373  -41.659795  15.101426  18.865915  55.569382  9.333932  4.611578  2.392673  0.782404  -0.198666  1.688097  2.123616  -0.597254  4.607376  2.123616  -0.597254  4.607376  -18.696451  25.320491  9.609453  141.394039  39.721609  -161.959065  -12.657584  7.705758  81.182962  59.656543  -31.934612  -0.947033  5.321121  -12.475711  15.213622  31.88377  71.051286  -20.132062  -36.741571  -31.876773  -83.594259  50.371569  5.149478  -14.892804  -16.921332  -2.84177  2.254653  -12.678121  -2.195795  1.613337  
0.0  93.25843  0.0  2.810404  30.932254  -90.61103  8.128362  -11.604497  19.415514  -8.692866  1.118044  15.584867  2.852216  1.543802  -1.210852  -29.76082  -11.213585  -41.87304  15.109757  18.653053  55.502246  9.473077  4.725006  2.489964  0.78536  -0.194358  1.678157  2.132084  -0.585373  4.580316  2.132084  -0.585373  4.580316  -18.901551  25.485382  9.133758  140.665194  40.188837  -162.479435  -12.683735  6.41412  81.18209  60.102721  -31.624659  -1.468882  5.63926  -12.785555  14.941718  33.643466  71.39037  -18.207829  -37.068424  -31.505202  -83.477566  50.384662  5.056686  -14.870692  -16.892197  -2.731622  2.26652  -12.656828  -2.113322  1.625457  
0.0  93.25843  0.0  2.72809  30.548456  -90.694367  7.963146  -11.512831  20.024511  -8.296943  0.943232  14.781468  3.108868  1.560314  -1.181354  -29.678288  -11.152312  -41.697515  14.770381  18.636239  55.33265  9.39017  4.709639  2.452213  0.818785  -0.213272  1.670119  2.222182  -0.639082  4.55741  2.222181  -0.639082  4.55741  -18.837819  25.7122  8.940255  140.495345  40.755131  -162.621328  -12.494359  5.608862  81.023009  60.671443  -31.281399  -2.036575  5.830058  -12.966478  15.050555  35.552331  71.82421  -16.366219  -37.375925  -31.508849  -83.383941  50.295604  4.915304  -14.83005  -16.743679  -2.511125  2.424498  -12.546026  -1.951555  1.750777  
